# xmcd
#
# Track frame offsets: 
#        182
#        12857
#        23757
#        32275
#        49210
#        59707
#        79932
#        96082
#        106957
#        117165
#        129907
#        146670
#        169370
#        180720
#        195520
#        216282
#        232257
#
# Disc length: 3373 seconds
#
# Revision: 0
# Processed by: cddbd v1.5.2PL0 Copyright (c) Steve Scherf et al.
# Submitted via: ExactAudioCopy v0.99pb4
#
DISCID=ec0d2b11
DTITLE=Various Artist - Country Stars 6
DYEAR=1991
DGENRE=Country
TTITLE0=Memories to burn - Gene Watson
TTITLE1=You're out doin' - Gene Watson
TTITLE2=Drinkin' my way back - Gene Watson
TTITLE3=Carmen - Gene Watson
TTITLE4=Farewell Party - Gene Watson
TTITLE5=If I said you had a beautiful body - Bellamy Bros
TTITLE6=Redneck Girl - Bellamy Bros
TTITLE7=Sugar Daddy - Bellamy Bros
TTITLE8=Let your love flow - Bellamy Bros
TTITLE9=San Antonio Stroll - Tanya Tucker
TTITLE10=The night they drove old Dixie down - Tanya Tucker
TTITLE11=Texas when I die - Tanya Tucker
TTITLE12=Pecos Promenade - Tanya Tucker
TTITLE13=What's your mama's name - Tanya Tucker
TTITLE14=Baby I'm yours - Tanya Tucker
TTITLE15=You are so beautiful - Tanya Tucker
TTITLE16=Delta Dawn - Tanya Tucker
EXTD=
EXTT0=
EXTT1=
EXTT2=
EXTT3=
EXTT4=
EXTT5=
EXTT6=
EXTT7=
EXTT8=
EXTT9=
EXTT10=
EXTT11=
EXTT12=
EXTT13=
EXTT14=
EXTT15=
EXTT16=
PLAYORDER=
